:SAMPLES-PER-SECOND 30
:FULLY-SPECIFIED
:DEGREES
508
root  -10.5192 34.6459 0.987047 -174.71 -26.0241 178.304
RightUpLeg  -0.528754 -22.805 -2.61679
RightLeg  8.71717 -13.7733 -1.19602
RightFoot  0.205921 0.000210364 0.165286
RightToes  -23.1206 -0.102493 -0.201427
Spine  -1.82866 2.06561 -1.19203
Spine1  -3.53367 3.84124 -1.47141
HEad  -57.5255 15.2032 16.3933
LeftShoulder1  -1.94126e-019 -3.10601e-018 -2.51263e-017
LeftArm  -18.4839 24.6321 -70.7236
LeftForeArm  27.9755 -23.1525 -3.99994
LeftHand  -0.297989 2.10148 10.3278
RightShoulder  -4.96962e-017 0 -2.36833e-017
RightArm  -31.1938 11.5877 51.4843
RightForeArm  -131.496 55.4629 169.326
RightHand  -2.63031 2.24436 -38.7822
LeftUpLeg  -10.4487 -17.3595 1.842
LeftLeg  12.2055 6.521 0.973392
LeftFoot  5.4933 -0.0271887 0.770448
LeftToes  -27.1048 2.14545e-006 -7.7278e-009
509
root  -10.4948 34.6323 0.994097 -174.57 -27.7257 178.012
RightUpLeg  -0.571968 -23.6916 -2.7958
RightLeg  9.31238 -14.568 -1.41434
RightFoot  -0.166434 -0.00113511 0.265143
RightToes  -22.9717 -0.101304 -0.199656
Spine  -1.67445 2.33253 -1.23004
Spine1  -3.22879 4.36936 -1.53387
HEad  -58.8147 14.4814 16.4181
LeftShoulder1  -1.94126e-019 -3.10601e-018 -2.51263e-017
LeftArm  -21.8204 25.9458 -71.1822
LeftForeArm  27.0401 -19.4316 -3.4089
LeftHand  -0.278052 2.48143 10.8296
RightShoulder  -4.96962e-017 0 -2.36833e-017
RightArm  -29.7699 10.699 52.1232
RightForeArm  -122.786 57.2289 168.867
RightHand  -3.08887 2.11109 -45.6203
LeftUpLeg  -10.716 -18.1019 1.75387
LeftLeg  12.0998 5.69103 0.839046
LeftFoot  5.80213 -0.0254858 0.719305
LeftToes  -27.7258 2.14545e-006 -7.7278e-009
510
root  -10.4549 34.622 0.996254 -174.305 -28.7852 177.712
RightUpLeg  -0.927166 -24.3544 -2.93581
RightLeg  10.0851 -14.9342 -1.65023
RightFoot  -0.573076 -0.00184195 0.383754
RightToes  -22.8565 -0.100275 -0.198137
Spine  -1.58945 2.6399 -1.30567
Spine1  -3.07958 5.02094 -1.70298
HEad  -59.9543 13.5426 16.5909
LeftShoulder1  -1.94126e-019 -3.10601e-018 -2.51263e-017
LeftArm  -24.5975 27.5122 -71.4567
LeftForeArm  25.6094 -15.2179 -2.69034
LeftHand  -0.238602 2.84752 10.5136
RightShoulder  -4.96962e-017 0 -2.36833e-017
RightArm  -33.1342 10.3173 54.4939
RightForeArm  -127.193 58.4232 168.131
RightHand  -2.7606 1.07091 -47.1655
LeftUpLeg  -10.8843 -18.7341 1.68685
LeftLeg  11.7737 5.35021 0.757854
LeftFoot  6.10758 -0.0268256 0.716945
LeftToes  -28.1516 2.14545e-006 -7.7278e-009
511
root  -10.4131 34.6152 0.991051 -173.955 -29.4506 177.496
RightUpLeg  -1.34917 -24.8114 -2.92961
RightLeg  10.591 -15.1372 -1.80589
RightFoot  -0.890158 -0.00177772 0.482512
RightToes  -22.5267 -0.0994039 -0.196861
Spine  -1.60376 2.85674 -1.36616
Spine1  -3.12324 5.5075 -1.84599
HEad  -60.7686 12.3668 16.62
LeftShoulder1  -1.94126e-019 -3.10601e-018 -2.51263e-017
LeftArm  -26.4548 29.2292 -71.6024
LeftForeArm  25.2815 -10.4976 -1.85252
LeftHand  -0.215287 3.04986 10.2172
RightShoulder  -4.96962e-017 0 -2.36833e-017
RightArm  -38.7524 10.7248 57.7433
RightForeArm  -142.522 58.5876 167.293
RightHand  -1.65441 -0.971446 -41.9095
LeftUpLeg  -11.0931 -19.2003 1.70258
LeftLeg  11.4088 5.20422 0.703515
LeftFoot  6.43802 -0.029542 0.737684
LeftToes  -28.7622 2.14545e-006 -7.7278e-009
512
root  -10.377 34.5791 0.976315 -173.544 -29.8228 177.34
RightUpLeg  -2.03937 -25.2116 -2.8606
RightLeg  11.4162 -15.1065 -2.02076
RightFoot  -1.3424 -0.000734272 0.624059
RightToes  -22.4521 -0.0986887 -0.19582
Spine  -1.70274 3.02555 -1.47536
Spine1  -3.3096 5.96295 -2.08992
HEad  -61.2752 11.2522 16.523
LeftShoulder1  -1.94126e-019 -3.10601e-018 -2.51263e-017
LeftArm  -27.4567 31.575 -71.6376
LeftForeArm  25.8087 -8.89962 -1.56932
LeftHand  -0.201422 3.09366 9.68524
RightShoulder  -4.96962e-017 0 -2.36833e-017
RightArm  -44.3193 11.2581 60.2567
RightForeArm  -163.267 57.8546 166.282
RightHand  0.167138 -5.86625 -37.5213
LeftUpLeg  -11.6094 -19.6297 1.77245
LeftLeg  11.6158 5.31513 0.737997
LeftFoot  6.39531 -0.0323254 0.761375
LeftToes  -28.6602 2.14545e-006 -7.7278e-009
513
root  -10.3384 34.5527 0.943719 -173.228 -29.788 177.284
RightUpLeg  -2.52792 -25.3751 -2.7295
RightLeg  11.8219 -14.9119 -2.10174
RightFoot  -1.55674 0.000122134 0.688515
RightToes  -22.7125 -0.0981273 -0.195004
Spine  -1.83202 3.14771 -1.55221
Spine1  -3.53591 6.32115 -2.27871
HEad  -61.5647 10.0465 16.2209
LeftShoulder1  -1.94126e-019 -3.10601e-018 -2.51263e-017
LeftArm  -27.8409 33.8786 -71.7659
LeftForeArm  26.6008 -8.05314 -1.41793
LeftHand  -0.206403 2.94898 9.36701
RightShoulder  -4.96962e-017 0 -2.36833e-017
RightArm  -47.2959 11.2326 61.1393
RightForeArm  -173.995 57.6738 165.542
RightHand  1.58841 -10.0764 -37.6037
LeftUpLeg  -11.8684 -19.874 1.89375
LeftLeg  11.595 5.6392 0.780867
LeftFoot  6.34667 -0.036194 0.804049
LeftToes  -28.2895 2.14545e-006 -7.7278e-009
514
root  -10.2977 34.5378 0.901434 -172.981 -29.3275 177.284
RightUpLeg  -2.97337 -25.1899 -2.5636
RightLeg  12.097 -14.6571 -2.13775
RightFoot  -1.70484 -0.00134447 0.725559
RightToes  -22.6732 -0.0977177 -0.194406
Spine  -1.96601 3.21796 -1.62117
Spine1  -3.76473 6.55132 -2.45171
HEad  -61.8387 8.80264 15.8833
LeftShoulder1  -1.94126e-019 -3.10601e-018 -2.51263e-017
LeftArm  -27.9204 35.8744 -72.0438
LeftForeArm  27.3677 -7.48306 -1.31562
LeftHand  -0.222077 2.75275 9.39689
RightShoulder  -4.96962e-017 0 -2.36833e-017
RightArm  -46.2632 9.40829 60.6168
RightForeArm  -172.043 58.2333 165.389
RightHand  1.40023 -9.68319 -36.3225
LeftUpLeg  -11.9582 -19.716 2.0104
LeftLeg  11.4649 5.98714 0.815165
LeftFoot  6.34285 -0.040053 0.848901
LeftToes  -28.1592 2.14545e-006 -7.7278e-009
515
root  -10.2673 34.5291 0.861841 -172.773 -28.5356 177.325
RightUpLeg  -3.39549 -24.803 -2.39558
RightLeg  12.2539 -14.2906 -2.12511
RightFoot  -1.78732 -0.00254394 0.735242
RightToes  -22.5877 -0.0974579 -0.194016
Spine  -2.08547 3.21473 -1.69662
Spine1  -3.96697 6.60283 -2.62939
HEad  -62.3827 7.2011 15.3712
LeftShoulder1  -1.94126e-019 -3.10601e-018 -2.51263e-017
LeftArm  -28.1618 37.4381 -72.5181
LeftForeArm  27.6179 -7.22052 -1.26869
LeftHand  -0.227191 2.72387 9.52629
RightShoulder  -4.96962e-017 0 -2.36833e-017
RightArm  -41.6664 6.21111 59.1319
RightForeArm  -164.794 58.7103 165.693
RightHand  0.555728 -7.15694 -35.0605
LeftUpLeg  -11.9879 -19.4397 2.11305
LeftLeg  11.3762 6.51976 0.877282
LeftFoot  6.30433 -0.0445833 0.906721
LeftToes  -27.9 2.14545e-006 -7.7278e-009
516
root  -10.2357 34.5226 0.819804 -172.602 -27.481 177.403
RightUpLeg  -3.78088 -24.2599 -2.21182
RightLeg  12.2964 -13.8196 -2.06702
RightFoot  -1.8317 -0.00364783 0.727546
RightToes  -22.5364 -0.0973457 -0.193825
Spine  -2.1644 3.16623 -1.77199
Spine1  -4.09715 6.53562 -2.79588
HEad  -63.268 4.61244 14.6769
LeftShoulder1  -1.94126e-019 -3.10601e-018 -2.51263e-017
LeftArm  -28.7381 38.3699 -73.2028
LeftForeArm  27.7931 -7.07568 -1.24179
LeftHand  -0.252503 2.45649 9.70776
RightShoulder  -4.96962e-017 0 -2.36833e-017
RightArm  -36.0121 2.54826 57.5542
RightForeArm  -156.361 58.9385 166.194
RightHand  -0.572715 -3.30956 -31.3826
LeftUpLeg  -11.9794 -18.9826 2.20971
LeftLeg  11.3465 7.13162 0.955591
LeftFoot  6.18552 -0.0486803 0.960549
LeftToes  -27.559 2.14545e-006 -7.7278e-009
517
root  -10.2052 34.5242 0.776282 -172.475 -26.2169 177.519
RightUpLeg  -4.05333 -23.5997 -2.02702
RightLeg  12.1155 -13.2647 -1.94332
RightFoot  -1.75567 -0.00277281 0.683096
RightToes  -22.5487 -0.0973791 -0.193827
Spine  -2.2079 3.04088 -1.84602
Spine1  -4.16501 6.26491 -2.93885
HEad  -64.1729 1.28684 13.7689
LeftShoulder1  -1.94126e-019 -3.10601e-018 -2.51263e-017
LeftArm  -29.5246 38.6614 -74.1575
LeftForeArm  27.9728 -7.15347 -1.25555
LeftHand  -0.251389 2.53628 9.92511
RightShoulder  -4.96962e-017 0 -2.36833e-017
RightArm  -28.9353 -1.24028 56.6827
RightForeArm  -147.961 59.6993 166.343
RightHand  -1.10696 -1.18782 -30.0962
LeftUpLeg  -11.8285 -18.3978 2.30876
LeftLeg  11.1685 7.81193 1.02176
LeftFoot  6.12741 -0.0531887 1.02372
LeftToes  -27.2979 2.14545e-006 -7.7278e-009
